<svg width="46.000000" height="46.000000" viewBox="0 0 46 46" fill="none" xmlns="http://www.w3.org/2000/svg" xmlns:xlink="http://www.w3.org/1999/xlink">
	<desc>
			Created with Pixso.
	</desc>
	<defs/>
	<path id="Vector" d="M13.33 0L32.66 0C40.01 0 46 5.98 46 13.33L46 32.66C46 36.19 44.59 39.59 42.09 42.09C39.59 44.59 36.19 46 32.66 46L13.33 46C5.98 46 0 40.01 0 32.66L0 13.33C0 9.8 1.4 6.4 3.9 3.9C6.4 1.4 9.8 0 13.33 0ZM12.87 4.59C10.68 4.59 8.57 5.47 7.02 7.02C5.47 8.57 4.59 10.68 4.59 12.87L4.59 33.12C4.59 37.69 8.3 41.4 12.87 41.4L33.12 41.4C35.31 41.4 37.42 40.52 38.97 38.97C40.52 37.42 41.4 35.31 41.4 33.12L41.4 12.87C41.4 8.3 37.69 4.59 33.12 4.59L12.87 4.59ZM35.07 8.04C35.83 8.04 36.56 8.35 37.1 8.89C37.64 9.43 37.95 10.16 37.95 10.92C37.95 11.68 37.64 12.41 37.1 12.95C36.56 13.49 35.83 13.79 35.07 13.79C34.31 13.79 33.58 13.49 33.04 12.95C32.5 12.41 32.2 11.68 32.2 10.92C32.2 10.16 32.5 9.43 33.04 8.89C33.58 8.35 34.31 8.04 35.07 8.04ZM23 11.5C26.04 11.5 28.97 12.71 31.13 14.86C33.28 17.02 34.5 19.95 34.5 23C34.5 26.04 33.28 28.97 31.13 31.13C28.97 33.28 26.04 34.5 23 34.5C19.95 34.5 17.02 33.28 14.86 31.13C12.71 28.97 11.5 26.04 11.5 23C11.5 19.95 12.71 17.02 14.86 14.86C17.02 12.71 19.95 11.5 23 11.5ZM23 16.09C21.16 16.09 19.41 16.82 18.12 18.12C16.82 19.41 16.09 21.16 16.09 23C16.09 24.83 16.82 26.58 18.12 27.87C19.41 29.17 21.16 29.9 23 29.9C24.83 29.9 26.58 29.17 27.87 27.87C29.17 26.58 29.9 24.83 29.9 23C29.9 21.16 29.17 19.41 27.87 18.12C26.58 16.82 24.83 16.09 23 16.09Z" fill="#4857A7" fill-opacity="1.000000" fill-rule="nonzero"/>
</svg>
