<svg width="50.000000" height="50.000000" viewBox="0 0 50 50" fill="none" xmlns="http://www.w3.org/2000/svg" xmlns:xlink="http://www.w3.org/1999/xlink">
	<desc>
			Created with Pixso.
	</desc>
	<defs>
		<clipPath id="clip4_45">
			<rect id="solar:arrow-up-outline" rx="0.000000" width="47.000000" height="47.000000" transform="translate(49.500000 1.500000) rotate(90.000000)" fill="white" fill-opacity="0"/>
		</clipPath>
	</defs>
	<rect id="solar:arrow-up-outline" rx="0.000000" width="47.000000" height="47.000000" transform="translate(49.500000 1.500000) rotate(90.000000)" fill="#FFFFFF" fill-opacity="0"/>
	<g clip-path="url(#clip4_45)">
		<path id="Vector" d="M42.06 23.94C42.34 24.22 42.49 24.6 42.49 25C42.49 25.39 42.34 25.77 42.06 26.06L30.06 38.06C29.92 38.2 29.75 38.32 29.57 38.4C29.38 38.48 29.19 38.53 28.98 38.53C28.78 38.54 28.58 38.5 28.4 38.42C28.21 38.35 28.04 38.24 27.9 38.09C27.75 37.95 27.64 37.78 27.57 37.59C27.49 37.41 27.46 37.21 27.46 37.01C27.46 36.81 27.51 36.61 27.59 36.42C27.67 36.24 27.79 36.07 27.94 35.94L37.37 26.5L9 26.5C8.6 26.5 8.22 26.34 7.93 26.06C7.65 25.77 7.5 25.39 7.5 25C7.5 24.6 7.65 24.22 7.93 23.93C8.22 23.65 8.6 23.5 9 23.5L37.37 23.5L27.94 14.06C27.79 13.92 27.67 13.75 27.59 13.57C27.51 13.38 27.46 13.19 27.46 12.98C27.46 12.78 27.49 12.58 27.57 12.4C27.64 12.21 27.75 12.04 27.9 11.9C28.04 11.75 28.21 11.64 28.4 11.57C28.58 11.49 28.78 11.45 28.98 11.46C29.19 11.46 29.38 11.51 29.57 11.59C29.75 11.67 29.92 11.79 30.06 11.94L42.06 23.94Z" fill="#000000" fill-opacity="1.000000" fill-rule="evenodd"/>
	</g>
	<rect id="Frame 106" rx="24.000000" width="48.000000" height="48.000000" transform="translate(1.000000 1.000000)" stroke="#000000" stroke-opacity="1.000000" stroke-width="2.000000"/>
</svg>
