<svg width="50.000000" height="50.000000" viewBox="0 0 50 50" fill="none" xmlns="http://www.w3.org/2000/svg" xmlns:xlink="http://www.w3.org/1999/xlink">
	<desc>
			Created with Pixso.
	</desc>
	<defs>
		<clipPath id="clip4_42">
			<rect id="solar:arrow-up-outline" rx="0.000000" width="47.000000" height="47.000000" transform="translate(1.500000 49.500000) rotate(-90.000000)" fill="white" fill-opacity="0"/>
		</clipPath>
	</defs>
	<rect id="Frame 107" rx="24.000000" width="48.000000" height="48.000000" transform="translate(1.000000 1.000000)" fill="#4857A7" fill-opacity="0"/>
	<rect id="solar:arrow-up-outline" rx="0.000000" width="47.000000" height="47.000000" transform="translate(1.500000 49.500000) rotate(-90.000000)" fill="#FFFFFF" fill-opacity="0"/>
	<g clip-path="url(#clip4_42)">
		<path id="Vector" d="M7.93 26.05C7.65 25.77 7.5 25.39 7.5 24.99C7.5 24.6 7.65 24.22 7.93 23.93L19.93 11.93C20.07 11.79 20.24 11.67 20.42 11.59C20.61 11.51 20.8 11.46 21.01 11.46C21.21 11.45 21.41 11.49 21.59 11.57C21.78 11.64 21.95 11.75 22.09 11.9C22.24 12.04 22.35 12.21 22.42 12.4C22.5 12.58 22.54 12.78 22.53 12.98C22.53 13.18 22.48 13.38 22.4 13.57C22.32 13.75 22.2 13.92 22.05 14.05L12.62 23.49L41 23.49C41.39 23.49 41.77 23.65 42.06 23.93C42.34 24.22 42.5 24.6 42.5 24.99C42.5 25.39 42.34 25.77 42.06 26.06C41.77 26.34 41.39 26.49 41 26.49L12.62 26.49L22.05 35.93C22.2 36.07 22.32 36.24 22.4 36.42C22.48 36.61 22.53 36.8 22.53 37.01C22.54 37.21 22.5 37.41 22.42 37.59C22.35 37.78 22.24 37.95 22.09 38.09C21.95 38.24 21.78 38.35 21.59 38.42C21.41 38.5 21.21 38.54 21.01 38.53C20.8 38.53 20.61 38.48 20.42 38.4C20.24 38.32 20.07 38.2 19.93 38.05L7.93 26.05Z" fill="#000000" fill-opacity="1.000000" fill-rule="evenodd"/>
	</g>
	<rect id="Frame 107" rx="24.000000" width="48.000000" height="48.000000" transform="translate(1.000000 1.000000)" stroke="#000000" stroke-opacity="1.000000" stroke-width="2.000000"/>
</svg>
